<svg width="16" height="16" viewBox="0 0 16 16" fill="none" xmlns="http://www.w3.org/2000/svg">
<g clip-path="url(#clip0_20578_15141)">
<path fill-rule="evenodd" clip-rule="evenodd" d="M9 12H15V2.5L13.5 1H7V4H1V15H9V12Z" fill="white"/>
<path d="M14 5H11V6H14V5Z" fill="#D65633"/>
<path d="M14 7H11V8H14V7Z" fill="#D65633"/>
<path d="M14 9H11V10H14V9Z" fill="#D65633"/>
<path d="M8 8H2V9H8V8Z" fill="#ADB1B2"/>
<path d="M8 10H2V11H8V10Z" fill="#ADB1B2"/>
<path d="M8 12H2V13H8V12Z" fill="#ADB1B2"/>
<path d="M13 1L15 3H13V1ZM12 0V3C12 3.26522 12.1054 3.51957 12.2929 3.70711C12.4804 3.89464 12.7348 4 13 4H16V2.6L13.4 0H12Z" fill="#D65633"/>
<path d="M9 6V15H1V4H6.94V3H1C0.734784 3 0.48043 3.10536 0.292893 3.29289C0.105357 3.48043 0 3.73478 0 4L0 15C0 15.2652 0.105357 15.5196 0.292893 15.7071C0.48043 15.8946 0.734784 16 1 16H9C9.26522 16 9.51957 15.8946 9.70711 15.7071C9.89464 15.5196 10 15.2652 10 15V6H9Z" fill="#798288"/>
<path d="M7 4L9 6H7V4ZM6 3V6C6 6.26522 6.10536 6.51957 6.29289 6.70711C6.48043 6.89464 6.73478 7 7 7H10V5.6L7.4 3H6Z" fill="#798288"/>
<path d="M7 2V1H12.94V0H7C6.73478 0 6.48043 0.105357 6.29289 0.292893C6.10536 0.48043 6 0.734784 6 1V2H7Z" fill="#D65633"/>
<path d="M15 3V12H11V13H15C15.2652 13 15.5196 12.8946 15.7071 12.7071C15.8946 12.5196 16 12.2652 16 12V3H15Z" fill="#D65633"/>
</g>
<defs>
<clipPath id="clip0_20578_15141">
<rect width="16" height="16" fill="white"/>
</clipPath>
</defs>
</svg>
