<svg width="16" height="16" viewBox="0 0 16 16" fill="none" xmlns="http://www.w3.org/2000/svg">
<path d="M13 15H3V1H11.5L13 2.5V15Z" fill="white"/>
<path d="M8.5 11H10.5C10.6326 11 10.7598 10.9473 10.8536 10.8536C10.9473 10.7598 11 10.6326 11 10.5C11 10.3674 10.9473 10.2402 10.8536 10.1464C10.7598 10.0527 10.6326 10 10.5 10H9V8.5C9 8.36739 8.94732 8.24021 8.85355 8.14645C8.75979 8.05268 8.63261 8 8.5 8C8.36739 8 8.24021 8.05268 8.14645 8.14645C8.05268 8.24021 8 8.36739 8 8.5V10.5C8 10.6326 8.05268 10.7598 8.14645 10.8536C8.24021 10.9473 8.36739 11 8.5 11Z" fill="#D65633"/>
<path d="M12 15C11.5807 14.9977 11.1664 14.9076 10.784 14.7353C10.4017 14.5631 10.0596 14.3126 9.78005 14H8.55005C8.99337 14.7556 9.67252 15.3448 10.4832 15.6771C11.2938 16.0093 12.1911 16.0663 13.0372 15.8391C13.8834 15.612 14.6315 15.1133 15.1668 14.4197C15.702 13.7262 15.9948 12.8761 16 12H15C15 12.7956 14.684 13.5587 14.1214 14.1213C13.5588 14.6839 12.7957 15 12 15Z" fill="#D65633"/>
<path d="M12 9.00001C11.5806 9.00226 11.1664 9.09241 10.784 9.26466C10.4016 9.4369 10.0596 9.68741 9.78 10H8.55C8.99332 9.24437 9.67247 8.65517 10.4831 8.32292C11.2937 7.99067 12.191 7.93375 13.0372 8.1609C13.8833 8.38805 14.6315 8.8867 15.1667 9.58026C15.702 10.2738 15.9947 11.1239 16 12H15C15 11.2044 14.6839 10.4413 14.1213 9.87868C13.5587 9.31608 12.7956 9.00001 12 9.00001V9.00001Z" fill="#D65633"/>
<path fill-rule="evenodd" clip-rule="evenodd" d="M3 0H11.4L14 2.6V7H13V4H11C10.7348 4 10.4804 3.89464 10.2929 3.70711C10.1054 3.51957 10 3.26522 10 3V1H3V15H8V16H3C2.73478 16 2.48043 15.8946 2.29289 15.7071C2.10536 15.5196 2 15.2652 2 15V1C2 0.734784 2.10536 0.48043 2.29289 0.292893C2.48043 0.105357 2.73478 0 3 0ZM11 1V3H13L11 1Z" fill="#798288"/>
</svg>
