<svg width="16" height="16" viewBox="0 0 16 16" fill="none" xmlns="http://www.w3.org/2000/svg">
<g clip-path="url(#clip0_20598_15141)">
<path fill-rule="evenodd" clip-rule="evenodd" d="M9 12H15V2.5L13.5 1H7V4H1V15H9V12Z" fill="white"/>
<path d="M13 1L15 3H13V1ZM12 0V3C12.0008 3.26498 12.1064 3.51889 12.2937 3.70626C12.4811 3.89363 12.735 3.99923 13 4H16V2.6L13.4 0H12Z" fill="#798288"/>
<path d="M8 7V15H1V5H5.9375V4H1C0.734784 4 0.48043 4.10536 0.292893 4.29289C0.105357 4.48043 0 4.73478 0 5L0 15C0 15.2652 0.105357 15.5196 0.292893 15.7071C0.48043 15.8946 0.734784 16 1 16H8C8.26522 16 8.51957 15.8946 8.70711 15.7071C8.89464 15.5196 9 15.2652 9 15V7H8Z" fill="#798288"/>
<path d="M6 5L8 7H6V5ZM5 4V7C5.00077 7.26498 5.10637 7.51889 5.29374 7.70626C5.48111 7.89363 5.73502 7.99923 6 8H9V6.6L6.4 4H5Z" fill="#798288"/>
<path d="M8 4V1H12.9375V0H8C7.73478 0 7.48043 0.105357 7.29289 0.292893C7.10536 0.48043 7 0.734784 7 1V4H8Z" fill="#798288"/>
<path d="M15 9V11H10V12H15C15.2652 12 15.5196 11.8946 15.7071 11.7071C15.8946 11.5196 16 11.2652 16 11V9H15Z" fill="#798288"/>
<path d="M8 11.5L5 9.5V11H2V12H5V13.5L8 11.5Z" fill="#407FB9"/>
<path d="M10 7.5L13 5.5V7H16V8H13V9.5L10 7.5Z" fill="#D65633"/>
<rect x="15" y="3" width="1" height="3" fill="#798288"/>
</g>
<defs>
<clipPath id="clip0_20598_15141">
<rect width="16" height="16" fill="white"/>
</clipPath>
</defs>
</svg>
