<svg width="16" height="16" viewBox="0 0 16 16" fill="none" xmlns="http://www.w3.org/2000/svg">
<g id="ShowRespondingDocuments_small" clip-path="url(#clip0_9307_418)">
<g id="old">
<path id="Vector" d="M12 9L9 14H3V1H10L12 3V9Z" fill="white"/>
<path id="Vector_2" d="M9 15H1V3H7L9 5V15Z" fill="white"/>
<path id="Vector_3" d="M12 5H13V3L12.5 2.5H11.5L12 3V5Z" fill="#798288"/>
<path id="Vector_4" d="M10 0H3C2.73478 0 2.48043 0.105357 2.29289 0.292893C2.10536 0.48043 2 0.734784 2 1H9V3C9 3.26522 9.10536 3.51957 9.29289 3.70711C9.48043 3.89464 9.73478 4 10 4H13V3L10 0ZM10 3V1.3L11.7 3H10Z" fill="#798288"/>
<path id="Vector_5" d="M9.84 11.74C9.82814 12.8591 9.67013 13.9718 9.37 15.05C10.7826 15.255 12.2174 15.255 13.63 15.05C13.3435 13.9718 13.1791 12.8649 13.14 11.75C13.14 11.09 12.93 10.17 11.38 10.21C9.59 10.26 9.84 11.74 9.84 11.74Z" fill="white"/>
<path id="Vector_6" d="M11.48 10.68C11.95 10.68 12.1 11.56 12.08 11.78C12.1316 12.7679 12.2756 13.7489 12.51 14.71C12.1 14.71 12.18 15.5 11.51 15.5C11.01 15.5 10.85 14.71 10.42 14.66C10.669 13.6791 10.8 12.672 10.81 11.66C11.01 11.66 10.97 10.66 11.41 10.66H11.49L11.48 10.68ZM11.49 10.19H11.39C9.59996 10.19 9.94996 10.8 9.94996 10.8C9.9542 12.0794 9.78944 13.3538 9.45996 14.59C10.13 14.71 10.74 15.19 11.37 15.19C12.1092 15.192 12.8477 15.1419 13.58 15.04C13.228 13.8083 13.0629 12.5307 13.09 11.25C13.09 10.6 12.95 10.19 11.49 10.19Z" fill="#8D9599"/>
<path id="Vector_7" d="M9.58002 8.45002C9.4421 9.60416 9.69943 10.771 10.31 11.76C10.5869 12.04 10.9572 12.208 11.3502 12.232C11.7432 12.256 12.1312 12.1342 12.44 11.89C12.44 11.89 13.27 11.39 13.44 8.44002C13.4412 8.18841 13.388 7.93951 13.2843 7.7103C13.1805 7.48108 13.0285 7.27694 12.8387 7.11179C12.6489 6.94664 12.4256 6.82437 12.1843 6.75331C11.9429 6.68225 11.6891 6.66407 11.44 6.70002C11.2025 6.69067 10.9654 6.72873 10.7427 6.81199C10.52 6.89525 10.3162 7.02204 10.143 7.18495C9.96987 7.34786 9.83091 7.54364 9.73424 7.76084C9.63758 7.97805 9.58515 8.21233 9.58002 8.45002Z" fill="white"/>
<path id="Vector_8" d="M11.59 6H11.5C9.66 6.11 9.06 7.19 9 7.93V8.12C9 10.45 9.41 13 11.5 13C13.59 13 14 10.6 14 7.94C14 7.13 13.34 6 11.59 6ZM11.59 12C11.25 12 9.94 12.13 10.01 8.6C10.111 8.42462 10.2548 8.27763 10.4279 8.17273C10.601 8.06782 10.7978 8.0084 11 8C11.6636 8.091 12.3364 8.091 13 8C13.08 9.34 13.12 12.14 11.57 12H11.59Z" fill="#8D9599"/>
<path id="Vector_9" d="M16 16H7V14.5C7.00899 14.3507 7.05717 14.2065 7.13969 14.0819C7.22221 13.9572 7.33614 13.8565 7.47 13.79L9.8 13C9.8 13 10.32 15 11.5 15C12.68 15 13.12 12.91 13.12 12.91L15.53 13.79C15.6558 13.8664 15.7631 13.9697 15.8443 14.0925C15.9256 14.2152 15.9787 14.3543 16 14.5V16Z" fill="#407FB9"/>
<path id="Vector_10" d="M7 2H1C0.739457 2.01437 0.49337 2.12435 0.308857 2.30886C0.124345 2.49337 0.014374 2.73946 0 3L0 15C0.014374 15.2605 0.124345 15.5066 0.308857 15.6911C0.49337 15.8757 0.739457 15.9856 1 16H6V15H1V3H6V5C6 5.26522 6.10536 5.51957 6.29289 5.70711C6.48043 5.89464 6.73478 6 7 6H10V5L7 2ZM7 5V3.3L8.7 5H7Z" fill="#798288"/>
</g>
</g>
<defs>
<clipPath id="clip0_9307_418">
<rect width="16" height="16" fill="white"/>
</clipPath>
</defs>
</svg>
