<svg width="16" height="16" viewBox="0 0 16 16" fill="none" xmlns="http://www.w3.org/2000/svg">
<g id="GoToWebsite_small">
<path id="Union" fill-rule="evenodd" clip-rule="evenodd" d="M8.2723 1.04604C8.01691 1.01548 7.75904 1 7.5 1C7.25378 1.00038 7.009 1.0147 6.76674 1.04254C6.76147 1.05184 6.75589 1.06099 6.75 1.06999C6.17536 1.91487 5.73458 2.83494 5.43647 3.79792C6.11007 3.93322 6.79793 4.00141 7.49 3.99999C8.20004 4.03508 8.90782 3.98316 9.59825 3.84798C9.30451 2.86391 8.86202 1.92314 8.27997 1.06L8.2723 1.04604ZM9.83744 4.8213C9.07551 4.97367 8.29419 5.03461 7.51 4.99999H7.4C6.65405 4.99502 5.91315 4.91643 5.18771 4.76687C5.03767 5.49796 4.96739 6.2467 4.98042 7H10.0222C10.0389 6.26578 9.97619 5.53548 9.83744 4.8213ZM4.4634 3.5527C4.69396 2.79072 5.00628 2.05287 5.39673 1.35254C4.46786 1.67135 3.61424 2.19922 2.90673 2.90673C2.9 2.91346 2.89329 2.9202 2.88659 2.92695C3.39553 3.17915 3.923 3.3882 4.4634 3.5527ZM2.22423 3.70984C2.86334 4.04413 3.53076 4.31551 4.21705 4.52159C4.04912 5.33272 3.9713 6.16388 3.98767 7H1.01999C1.11341 5.81059 1.5318 4.67296 2.22423 3.70984ZM10.8345 4.56617C11.5099 4.35457 12.1632 4.06864 12.7818 3.71152C13.0705 4.114 13.3137 4.5502 13.5052 5.01256C13.769 5.64927 13.9283 6.32023 13.9807 7H11.0686C11.0792 6.17879 10.9998 5.36286 10.8345 4.56617ZM12.1243 2.93208C11.6323 3.20234 11.1174 3.42345 10.5871 3.59355C10.3533 2.82065 10.0364 2.07238 9.64005 1.36239C10.1568 1.54256 10.6514 1.78819 11.1112 2.09545C11.4781 2.3406 11.8172 2.62121 12.1243 2.93208ZM9.9934 8H5.00641C5.03141 8.75483 5.12464 9.50348 5.28373 10.2371C5.98097 10.0917 6.6928 10.0118 7.40999 10H7.50999C8.2584 9.97297 9.00351 10.034 9.73065 10.1793C9.88072 9.46393 9.96901 8.73484 9.9934 8ZM4.03121 8C4.08094 8.83779 4.19628 9.6761 4.3609 10.4703C3.63349 10.6871 2.92733 10.9771 2.25363 11.3374C2.19939 11.2632 2.14665 11.1878 2.09545 11.1112C1.47415 10.1814 1.10484 9.10943 1.01926 8H4.03121ZM4.59218 11.4407C4.01823 11.615 3.45918 11.8401 2.92183 12.1141C3.51878 12.7064 4.22803 13.1803 5.01256 13.5052C5.143 13.5592 5.27489 13.6089 5.40799 13.6541C5.09827 13.0358 4.81877 12.2773 4.59218 11.4407ZM7.48999 11C6.8305 11.0045 6.17552 11.0729 5.53388 11.2029C5.8172 12.1409 6.211 13.0465 6.71 13.9C6.7242 13.918 6.7371 13.9368 6.74863 13.9564C7.25358 14.0152 7.76517 14.0147 8.27285 13.9539C8.28399 13.9352 8.29639 13.9172 8.30997 13.9C8.81246 13.0278 9.2069 12.1028 9.48792 11.1454C8.8333 11.0194 8.16286 10.9698 7.48999 11ZM9.61905 13.6449C9.95416 13.0155 10.2458 12.2452 10.4772 11.398C11.0348 11.5765 11.5749 11.8126 12.0884 12.104C11.3897 12.8003 10.5445 13.3257 9.61905 13.6449ZM13.8751 8.76809C13.6896 9.70054 13.3028 10.5768 12.7461 11.3377C12.1015 10.9545 11.4174 10.6503 10.7085 10.4289C10.8699 9.64565 10.9804 8.82172 11.0288 8H13.9807C13.9609 8.257 13.9258 8.51348 13.8751 8.76809ZM3.33323 1.26398C4.5666 0.439867 6.01664 0 7.5 0C9.48913 0 11.3968 0.790176 12.8033 2.1967C14.2098 3.60322 15 5.51088 15 7.5C15 8.98336 14.5601 10.4334 13.736 11.6668C12.9119 12.9001 11.7406 13.8614 10.3701 14.4291C8.99968 14.9968 7.49168 15.1453 6.03683 14.8559C4.58197 14.5665 3.2456 13.8522 2.1967 12.8033C1.14781 11.7544 0.433503 10.418 0.144114 8.96318C-0.145275 7.50832 0.00324965 6.00032 0.570907 4.62987C1.13856 3.25943 2.09986 2.08809 3.33323 1.26398Z" fill="#6FA6D4"/>
</g>
</svg>
