<svg width="32" height="32" viewBox="0 0 32 32" fill="none" xmlns="http://www.w3.org/2000/svg">
<path d="M16 2C19.7041 2.02877 23.2484 3.513 25.8677 6.1323C28.487 8.7516 29.9712 12.2959 30 16C29.9712 19.7041 28.487 23.2484 25.8677 25.8677C23.2484 28.487 19.7041 29.9712 16 30C12.2959 29.9712 8.7516 28.487 6.13231 25.8677C3.51301 23.2484 2.02877 19.7041 2.00001 16C2.02877 12.2959 3.51301 8.7516 6.13231 6.1323C8.7516 3.513 12.2959 2.02877 16 2ZM16 0C12.8355 0 9.74207 0.938384 7.11088 2.69649C4.4797 4.45459 2.42894 6.95345 1.21793 9.87706C0.0069325 12.8007 -0.309921 16.0177 0.307443 19.1214C0.924806 22.2251 2.44866 25.0761 4.6863 27.3137C6.92394 29.5513 9.77487 31.0752 12.8786 31.6926C15.9823 32.3099 19.1993 31.9931 22.1229 30.7821C25.0466 29.5711 27.5454 27.5203 29.3035 24.8891C31.0616 22.2579 32 19.1645 32 16C32 11.7565 30.3143 7.68687 27.3137 4.68629C24.3131 1.68571 20.2435 0 16 0Z" fill="#6FA6D4"/>
<path d="M30.3199 17H1.67993C1.41472 17 1.16036 16.8946 0.972825 16.7071C0.785288 16.5196 0.679932 16.2652 0.679932 16C0.679932 15.7348 0.785288 15.4804 0.972825 15.2929C1.16036 15.1054 1.41472 15 1.67993 15H30.3199C30.5851 15 30.8395 15.1054 31.027 15.2929C31.2146 15.4804 31.3199 15.7348 31.3199 16C31.3199 16.2652 31.2146 16.5196 31.027 16.7071C30.8395 16.8946 30.5851 17 30.3199 17Z" fill="#6FA6D4"/>
<path d="M13.48 31.38C13.3188 31.3848 13.1587 31.3531 13.0115 31.2873C12.8643 31.2215 12.7339 31.1233 12.63 31C10.4 28.11 8.17998 22 7.99998 16C7.86998 11.66 8.79998 6.84002 12.58 1.07002C12.7401 0.844283 12.9814 0.689357 13.2533 0.637774C13.5252 0.58619 13.8065 0.641961 14.0382 0.793377C14.2698 0.944792 14.4338 1.18007 14.4957 1.44982C14.5575 1.71956 14.5125 2.00279 14.37 2.24002C10.91 7.55002 9.87998 12 9.99998 16C10.19 22.16 12.64 27.55 14.31 29.69C14.4219 29.8472 14.4893 30.0317 14.505 30.224C14.5206 30.4163 14.484 30.6093 14.3989 30.7825C14.3138 30.9557 14.1835 31.1027 14.0218 31.2079C13.86 31.3131 13.6728 31.3725 13.48 31.38Z" fill="#6FA6D4"/>
<path d="M18.5599 31.38C18.3612 31.3782 18.1669 31.321 17.9989 31.215C17.8308 31.1089 17.6956 30.9582 17.6084 30.7796C17.5212 30.601 17.4854 30.4017 17.5051 30.204C17.5248 30.0062 17.5992 29.8179 17.7199 29.66C19.3799 27.53 21.8099 22 21.9999 16C22.1199 12.06 21.1799 7.67001 17.6699 2.30001C17.5108 2.06397 17.452 1.77438 17.5063 1.49495C17.5607 1.21552 17.7239 0.969141 17.9599 0.810012C18.196 0.650882 18.4856 0.592037 18.765 0.646422C19.0444 0.700808 19.2908 0.863969 19.4499 1.10001C23.2999 7.00001 24.1299 11.95 23.9999 16C23.8199 21.89 21.6699 28 19.3999 30.94C19.3032 31.073 19.177 31.1818 19.0313 31.2581C18.8857 31.3345 18.7243 31.3762 18.5599 31.38Z" fill="#6FA6D4"/>
<path d="M26.95 26.33C26.7719 26.3294 26.5967 26.2848 26.44 26.2L26.18 26.06C23.67 24.7 21.5 23.06 16 23C11 23 7.09005 25.36 5.58005 26.2C5.33743 26.2903 5.0703 26.2896 4.82818 26.198C4.58606 26.1064 4.38536 25.9301 4.26328 25.7018C4.14121 25.4735 4.10603 25.2087 4.16428 24.9565C4.22252 24.7042 4.37024 24.4817 4.58005 24.33C7.97901 22.2908 11.8389 21.1452 15.8 21H16C19.9593 20.9299 23.8504 22.0366 27.18 24.18L27.44 24.32C27.6475 24.4328 27.8119 24.611 27.9076 24.8269C28.0032 25.0428 28.0247 25.2842 27.9688 25.5137C27.9129 25.7431 27.7826 25.9475 27.5984 26.0952C27.4141 26.2429 27.1861 26.3254 26.95 26.33Z" fill="#6FA6D4"/>
<path d="M15.78 11C11.807 10.9893 7.91397 9.88192 4.53005 7.79998C4.38329 7.74959 4.24925 7.66789 4.13721 7.56053C4.02517 7.45318 3.93783 7.32274 3.88122 7.17827C3.82462 7.03379 3.80012 6.87873 3.80942 6.72384C3.81871 6.56896 3.86159 6.41794 3.93507 6.28127C4.00854 6.14461 4.11087 6.02555 4.23494 5.93237C4.35901 5.83919 4.50187 5.77411 4.6536 5.74164C4.80534 5.70917 4.96231 5.7101 5.11366 5.74434C5.265 5.77859 5.40708 5.84534 5.53005 5.93998C8.67801 7.8905 12.2971 8.94824 16 8.99998C21.74 8.93998 23.92 7.28998 26.4501 5.92998C26.6956 5.82924 26.9698 5.82334 27.2194 5.91342C27.469 6.00349 27.6762 6.18312 27.8009 6.41741C27.9255 6.6517 27.9586 6.92395 27.8938 7.18129C27.8289 7.43863 27.6708 7.66269 27.4501 7.80998C24.0384 9.99471 20.0499 11.1059 16 11H15.78Z" fill="#6FA6D4"/>
</svg>
