<svg width="32" height="32" viewBox="0 0 32 32" fill="none" xmlns="http://www.w3.org/2000/svg">
<path d="M25 29H4V1H20.8L25 5.14815V29Z" fill="white"/>
<path d="M25 6H21V2L25 6ZM19 0V7C19 7.26522 19.1054 7.51957 19.2929 7.70711C19.4804 7.89464 19.7348 8 20 8H27L19 0Z" fill="#9DA2A5"/>
<path d="M23 15H7V17H23V15Z" fill="#ADB1B2"/>
<path d="M19 11H11V13H19V11Z" fill="#ADB1B2"/>
<path d="M23 19H7V21H23V19Z" fill="#ADB1B2"/>
<path d="M18 23H10V25H18V23Z" fill="#6FA6D4"/>
<path fill-rule="evenodd" clip-rule="evenodd" d="M25 14.1178V7L20 2H5V29H15.7531C16.291 29.7563 16.9369 30.4305 17.6683 31H4C3.73478 31 3.48043 30.8946 3.29289 30.7071C3.10536 30.5196 3 30.2652 3 30V1C3 0.734784 3.10536 0.48043 3.29289 0.292893C3.48043 0.105357 3.73478 0 4 0H20.5L27 6.5V14.6655C26.3641 14.4134 25.6946 14.2279 25 14.1178Z" fill="#9DA2A5"/>
<g clip-path="url(#clip0_24838_10563)">
<circle cx="23.5" cy="23.5" r="9.5" fill="white"/>
</g>
<path d="M21.5 16C20.5 17.5 17.5001 25 21.5 31" stroke="#6FA6D4" stroke-linecap="round"/>
<path d="M25.4785 16C26.4785 17.5 29.4784 25 25.4785 31" stroke="#6FA6D4" stroke-linecap="round"/>
<path d="M29.5 18.5C26.5 20.5 21.5 21 17.5 18.5" stroke="#6FA6D4" stroke-linecap="round"/>
<path d="M17.5 28.6927C19.5 26.6927 26 26 29.5 28.6927" stroke="#6FA6D4" stroke-linecap="round"/>
<path d="M16 23.5H31" stroke="#6FA6D4" stroke-linecap="round"/>
<circle cx="23.5" cy="23.5" r="7.85" stroke="#6FA6D4" stroke-width="1.3"/>
<defs>
<clipPath id="clip0_24838_10563">
<rect width="12" height="16" fill="white" transform="translate(13 13)"/>
</clipPath>
</defs>
</svg>
