<svg id="Layer_1" data-name="Layer 1" xmlns="http://www.w3.org/2000/svg" viewBox="0 0 16 16"><title>certificate</title><rect x="1" y="2" width="14" height="11" fill="#fff"/><polygon points="13 16 11.5 15 10 16 10 12.25 13 12.25 13 16" fill="#407fb9"/><circle cx="11.5" cy="11.5" r="2.5" fill="#dfaa1a"/><rect x="5" y="5" width="6" height="1" fill="#adb1b2"/><rect x="2" y="7" width="12" height="1" fill="#adb1b2"/><rect x="2" y="9" width="6" height="1" fill="#adb1b2"/><path d="M15,1H1A1,1,0,0,0,0,2V13a1,1,0,0,0,1,1H8V13H1V2H15V14a1,1,0,0,0,1-1V2A1,1,0,0,0,15,1Z" fill="#956939"/></svg>