<svg width="16" height="16" viewBox="0 0 16 16" fill="none" xmlns="http://www.w3.org/2000/svg">
<path d="M13 15H3V1H11.5L13 2.5V15Z" fill="white"/>
<path d="M11.4 0H3C2.73478 0 2.48043 0.105357 2.29289 0.292893C2.10536 0.48043 2 0.734784 2 1V4H3V1H10V3C10 3.26522 10.1054 3.51957 10.2929 3.70711C10.4804 3.89464 10.7348 4 11 4H13V15H2C2 15.2652 2.10536 15.5196 2.29289 15.7071C2.48043 15.8946 2.73478 16 3 16H13C13.2652 16 13.5196 15.8946 13.7071 15.7071C13.8946 15.5196 14 15.2652 14 15V2.6L11.4 0ZM11 3V1L13 3H11Z" fill="#798288"/>
<path d="M12 5H0V14H12V5Z" fill="#576672"/>
<path d="M10 10L10 8L9 8L9 10L10 10ZM11 11L9 11C8.4 11 8 10.6 8 10L8 8C8 7.4 8.4 7 9 7L11 7L11 11Z" fill="white"/>
<path d="M11 7H10V12H9V13H10C10.5523 13 11 12.5523 11 12L11 7Z" fill="white"/>
<path d="M2 10H3V11H2C1.73478 11 1.48043 10.8946 1.29289 10.7071C1.10536 10.5196 1 10.2652 1 10V6H2V10Z" fill="white"/>
<path fill-rule="evenodd" clip-rule="evenodd" d="M5 7C4.44772 7 4 7.44772 4 8V10C4 10.5523 4.44772 11 5 11H6C6.55228 11 7 10.5523 7 10V8C7 7.44772 6.55228 7 6 7H5ZM6 8H5V10H6V8Z" fill="white"/>
</svg>
