<svg width="16" height="16" viewBox="0 0 16 16" fill="none" xmlns="http://www.w3.org/2000/svg">
  <path fill-rule="evenodd" clip-rule="evenodd" d="M14 1H3C2.4 1 2 1.4 2 2V3C2 3.6 2.4 4 3 4V14C3 15.1046 3.89543 16 5 16H12C13.1046 16 14 15.1046 14 14L14 4C14.6 4 15 3.6 15 3V2C15 1.4 14.6 1 14 1Z" fill="white"/>
  <path fill-rule="evenodd" clip-rule="evenodd" d="M7 0C6.4 0 6 0.4 6 1H3C2.4 1 2 1.4 2 2V3C2 3.6 2.4 4 3 4V14C3 15.1046 3.89543 16 5 16H12C13.1046 16 14 15.1046 14 14L14 4C14.6 4 15 3.6 15 3V2C15 1.4 14.6 1 14 1H11C11 0.4 10.6 0 10 0H7ZM3 2H14V3H13H4H3V2ZM13 4H4V14C4 14.5523 4.44772 15 5 15H12C12.5523 15 13 14.5523 13 14V4ZM6 6H7V13H6V6ZM8 6H9V13H8V6ZM11 6H10V13H11V6Z" fill="#798288"/>
</svg>
