<svg width="16" height="16" viewBox="0 0 16 16" fill="none" xmlns="http://www.w3.org/2000/svg">
<g clip-path="url(#clip0)">
<circle cx="8" cy="8" r="7.5" stroke="#798288"/>
<path fill-rule="evenodd" clip-rule="evenodd" d="M12 8C12 10.2091 10.2091 12 8 12C5.79086 12 4 10.2091 4 8C4 6.51944 4.8044 5.22675 6 4.53513L6 3.41604C4.2341 4.1876 3 5.94968 3 8C3 10.7614 5.23858 13 8 13C10.7614 13 13 10.7614 13 8C13 5.94968 11.7659 4.1876 10 3.41604L10 4.53513C11.1956 5.22675 12 6.51944 12 8Z" fill="#D65633"/>
<rect x="7" y="2" width="2" height="6" rx="1" fill="#D65633"/>
</g>
<defs>
<clipPath id="clip0">
<rect width="16" height="16" transform="matrix(-4.37114e-08 -1 -1 4.37114e-08 16 16)" fill="white"/>
</clipPath>
</defs>
</svg>
