<svg width="32" height="32" viewBox="0 0 32 32" fill="none" xmlns="http://www.w3.org/2000/svg">
<g clip-path="url(#clip0_20618_15304)">
<path d="M30 26H2V2H14L18 6H30V26Z" fill="white"/>
<path fill-rule="evenodd" clip-rule="evenodd" d="M16.58 5.42L13.18 2H2V26H11L12 28H2C1.46957 28 0.960859 27.7893 0.585786 27.4142C0.210714 27.0391 0 26.5304 0 26V2C0 1.46957 0.210714 0.960859 0.585786 0.585786C0.960859 0.210714 1.46957 0 2 0H14L18 4H30C30.5304 4 31.0391 4.21071 31.4142 4.58579C31.7893 4.96086 32 5.46957 32 6V26C32 26.5304 31.7893 27.0391 31.4142 27.4142C31.0391 27.7893 30.5304 28 30 28H28L29 26H30V6H18C17.7368 6.00152 17.4759 5.95107 17.2322 5.85154C16.9885 5.75201 16.7669 5.60536 16.58 5.42Z" fill="#9DA2A5"/>
<path d="M32 8H2V10H32V8Z" fill="#9DA2A5"/>
<path d="M26.5 26C25.9583 27.1429 24 30 20 30C16 30 14.0417 27.1429 13.5 26C14.0417 24.8571 16 22 20 22C24 22 25.9583 24.8571 26.5 26Z" fill="white"/>
<path fill-rule="evenodd" clip-rule="evenodd" d="M14.636 26C15.3162 27.1232 16.9851 29 19.9999 29C23.0148 29 24.6836 27.1232 25.3639 26C24.6836 24.8768 23.0148 23 19.9999 23C16.9851 23 15.3162 24.8768 14.636 26ZM12.5963 25.5717C13.2172 24.2618 15.4463 21 19.9999 21C24.5536 21 26.7827 24.2618 27.4036 25.5717L27.6066 26L27.4036 26.4283C26.7827 27.7382 24.5536 31 19.9999 31C15.4463 31 13.2172 27.7382 12.5963 26.4283L12.3933 26L12.5963 25.5717Z" fill="#798288"/>
<circle cx="20" cy="26" r="2" fill="#798288"/>
</g>
<defs>
<clipPath id="clip0_20618_15304">
<rect width="32" height="32" fill="white"/>
</clipPath>
</defs>
</svg>
