<svg width="16" height="16" viewBox="0 0 16 16" fill="none" xmlns="http://www.w3.org/2000/svg">
<g clip-path="url(#clip0_20630_15396)">
<path d="M16 4H7V5H16V4Z" fill="#ADB1B2"/>
<mask id="path-2-inside-1_20630_15396" fill="white">
<path fill-rule="evenodd" clip-rule="evenodd" d="M0.5 9C0.223858 9 0 9.22386 0 9.5V10.5V12.5V13.5C0 13.7761 0.223858 14 0.5 14H5.5C5.77614 14 6 13.7761 6 13.5V10.5C6 10.2239 5.77614 10 5.5 10H3.375L3.12166 9.32444C3.04848 9.12929 2.86192 9 2.6535 9H0.5Z"/>
</mask>
<path fill-rule="evenodd" clip-rule="evenodd" d="M0.5 9C0.223858 9 0 9.22386 0 9.5V10.5V12.5V13.5C0 13.7761 0.223858 14 0.5 14H5.5C5.77614 14 6 13.7761 6 13.5V10.5C6 10.2239 5.77614 10 5.5 10H3.375L3.12166 9.32444C3.04848 9.12929 2.86192 9 2.6535 9H0.5Z" fill="white"/>
<path d="M3.375 10L2.43867 10.3511L2.682 11H3.375V10ZM3.12166 9.32444L2.18533 9.67556L2.18534 9.67556L3.12166 9.32444ZM1 9.5C1 9.77614 0.776142 10 0.5 10V8C-0.328427 8 -1 8.67157 -1 9.5H1ZM1 10.5V9.5H-1V10.5H1ZM1 12.5V10.5H-1V12.5H1ZM1 13.5V12.5H-1V13.5H1ZM0.5 13C0.776142 13 1 13.2239 1 13.5H-1C-1 14.3284 -0.328427 15 0.5 15V13ZM5.5 13H0.5V15H5.5V13ZM5 13.5C5 13.2239 5.22386 13 5.5 13V15C6.32843 15 7 14.3284 7 13.5H5ZM5 10.5V13.5H7V10.5H5ZM5.5 11C5.22386 11 5 10.7761 5 10.5H7C7 9.67157 6.32843 9 5.5 9V11ZM3.375 11H5.5V9H3.375V11ZM2.18534 9.67556L2.43867 10.3511L4.31133 9.64888L4.05799 8.97331L2.18534 9.67556ZM2.6535 10C2.44508 10 2.25852 9.87071 2.18533 9.67556L4.05799 8.97332C3.83845 8.38786 3.27877 8 2.6535 8V10ZM0.5 10H2.6535V8H0.5V10Z" fill="#798288" mask="url(#path-2-inside-1_20630_15396)"/>
<mask id="path-4-inside-2_20630_15396" fill="white">
<path fill-rule="evenodd" clip-rule="evenodd" d="M0.5 2C0.223858 2 0 2.22386 0 2.5V3.5V5.5V6.5C0 6.77614 0.223858 7 0.5 7H5.5C5.77614 7 6 6.77614 6 6.5V3.5C6 3.22386 5.77614 3 5.5 3H3.375L3.12166 2.32444C3.04848 2.12929 2.86192 2 2.6535 2H0.5Z"/>
</mask>
<path fill-rule="evenodd" clip-rule="evenodd" d="M0.5 2C0.223858 2 0 2.22386 0 2.5V3.5V5.5V6.5C0 6.77614 0.223858 7 0.5 7H5.5C5.77614 7 6 6.77614 6 6.5V3.5C6 3.22386 5.77614 3 5.5 3H3.375L3.12166 2.32444C3.04848 2.12929 2.86192 2 2.6535 2H0.5Z" fill="white"/>
<path d="M3.375 3L2.43867 3.35112L2.682 4H3.375V3ZM3.12166 2.32444L2.18533 2.67556L2.18534 2.67556L3.12166 2.32444ZM1 2.5C1 2.77614 0.776142 3 0.5 3V1C-0.328427 1 -1 1.67157 -1 2.5H1ZM1 3.5V2.5H-1V3.5H1ZM1 5.5V3.5H-1V5.5H1ZM1 6.5V5.5H-1V6.5H1ZM0.5 6C0.776142 6 1 6.22386 1 6.5H-1C-1 7.32843 -0.328427 8 0.5 8V6ZM5.5 6H0.5V8H5.5V6ZM5 6.5C5 6.22386 5.22386 6 5.5 6V8C6.32843 8 7 7.32843 7 6.5H5ZM5 3.5V6.5H7V3.5H5ZM5.5 4C5.22386 4 5 3.77614 5 3.5H7C7 2.67157 6.32843 2 5.5 2V4ZM3.375 4H5.5V2H3.375V4ZM2.18534 2.67556L2.43867 3.35112L4.31133 2.64888L4.05799 1.97331L2.18534 2.67556ZM2.6535 3C2.44508 3 2.25852 2.87071 2.18533 2.67556L4.05799 1.97332C3.83845 1.38786 3.27877 1 2.6535 1V3ZM0.5 3H2.6535V1H0.5V3Z" fill="#798288" mask="url(#path-4-inside-2_20630_15396)"/>
<path d="M15.5 11H13.5C13.3674 11 13.2402 10.9473 13.1464 10.8536C13.0527 10.7598 13 10.6326 13 10.5C13 10.3674 13.0527 10.2402 13.1464 10.1464C13.2402 10.0527 13.3674 10 13.5 10H15V8.5C15 8.36739 15.0527 8.24021 15.1464 8.14645C15.2402 8.05268 15.3674 8 15.5 8C15.6326 8 15.7598 8.05268 15.8536 8.14645C15.9473 8.24021 16 8.36739 16 8.5V10.5C16 10.6326 15.9473 10.7598 15.8536 10.8536C15.7598 10.9473 15.6326 11 15.5 11Z" fill="#407FB9"/>
<path d="M8.5 13H10.5C10.6326 13 10.7598 13.0527 10.8536 13.1464C10.9473 13.2402 11 13.3674 11 13.5C11 13.6326 10.9473 13.7598 10.8536 13.8536C10.7598 13.9473 10.6326 14 10.5 14H9V15.5C9 15.6326 8.94732 15.7598 8.85355 15.8536C8.75979 15.9473 8.63261 16 8.5 16C8.36739 16 8.24021 15.9473 8.14645 15.8536C8.05268 15.7598 8 15.6326 8 15.5V13.5C8 13.3674 8.05268 13.2402 8.14645 13.1464C8.24021 13.0527 8.36739 13 8.5 13Z" fill="#407FB9"/>
<path d="M12 15C11.5807 14.9977 11.1664 14.9076 10.784 14.7353C10.4017 14.5631 10.0596 14.3126 9.78005 14H8.55005C8.99337 14.7556 9.67252 15.3448 10.4832 15.6771C11.2938 16.0093 12.1911 16.0663 13.0372 15.8391C13.8834 15.612 14.6315 15.1133 15.1668 14.4197C15.702 13.7262 15.9948 12.8761 16 12H15C15 12.7956 14.684 13.5587 14.1214 14.1213C13.5588 14.6839 12.7957 15 12 15Z" fill="#407FB9"/>
<path d="M12 9.00001C12.4194 9.00226 12.8336 9.09241 13.216 9.26466C13.5984 9.4369 13.9404 9.68741 14.22 10H15.45C15.0067 9.24437 14.3275 8.65517 13.5169 8.32292C12.7063 7.99067 11.809 7.93375 10.9628 8.1609C10.1167 8.38805 9.36854 8.8867 8.83329 9.58026C8.29803 10.2738 8.00528 11.1239 8 12H9C9 11.2044 9.31607 10.4413 9.87868 9.87868C10.4413 9.31608 11.2044 9.00001 12 9.00001Z" fill="#407FB9"/>
</g>
<defs>
<clipPath id="clip0_20630_15396">
<rect width="16" height="16" fill="white"/>
</clipPath>
</defs>
</svg>
