<svg width="16" height="16" viewBox="0 0 16 16" fill="none" xmlns="http://www.w3.org/2000/svg">
<g clip-path="url(#clip0_22719_16288)">
<path fill-rule="evenodd" clip-rule="evenodd" d="M6 16V14.2208C6 13.7903 6.27543 13.4082 6.68377 13.2721L9 12.5C9 12.5 8 11.5 8 8.5C8 7.20121 8.46857 6.37099 9 5.84705V0.5C9 0.367392 8.94732 0.240215 8.85355 0.146447C8.75979 0.0526784 8.63261 0 8.5 0H0.5C0.367392 0 0.240215 0.0526784 0.146447 0.146447C0.0526784 0.240215 0 0.367392 0 0.5V15.5C0 15.6326 0.0526784 15.7598 0.146447 15.8536C0.240215 15.9473 0.367392 16 0.5 16H3V14H4V16H6ZM3 2H2V3H3V2ZM5 2H4V3H5V2ZM6 2H7V3H6V2ZM3 4H2V5H3V4ZM4 4H5V5H4V4ZM7 4H6V5H7V4ZM2 6H3V7H2V6ZM5 6H4V7H5V6ZM6 6H7V7H6V6ZM3 8H2V9H3V8ZM4 8H5V9H4V8ZM7 8H6V9H7V8ZM2 10H3V11H2V10ZM5 10H4V11H5V10ZM6 10H7V11H6V10Z" fill="#9DA2A5"/>
<path d="M10.5 12C10.4896 13.1225 9.67156 13.9787 9.37 15.06C10.7828 15.2627 12.2172 15.2627 13.63 15.06C13.3421 13.9784 13.0445 13.1184 13 12C13 11.34 12.92 10.17 11.38 10.22C11.1719 10.1862 10.9587 10.202 10.7579 10.2662C10.557 10.3303 10.3741 10.4409 10.2241 10.589C10.074 10.7371 9.96103 10.9185 9.8943 11.1185C9.82756 11.3185 10.469 11.7915 10.5 12Z" fill="white"/>
<path d="M11.48 10.68C11.94 10.68 12.09 11.55 12.08 11.77C12.1295 12.7575 12.2701 13.7383 12.5 14.7C12.1 14.7 12.17 15.49 11.5 15.49C11 15.49 10.84 14.7 10.41 14.65C10.659 13.6691 10.79 12.6619 10.8 11.65C11 11.65 10.96 10.65 11.4 10.65H11.49L11.48 10.68ZM11.49 10.18H11.39C9.59996 10.18 9.94996 10.78 9.94996 10.78C9.95281 12.0593 9.78807 13.3335 9.45996 14.57C10.08 14.8222 10.7185 15.0261 11.37 15.18C12.1095 15.1806 12.8482 15.1271 13.58 15.02C13.2245 13.7888 13.056 12.5112 13.08 11.23C13.08 10.59 12.94 10.17 11.49 10.17V10.18Z" fill="#8D9599"/>
<path d="M9.58005 8.44997C9.44292 9.60407 9.7002 10.7706 10.31 11.76C10.5886 12.0406 10.9606 12.209 11.3553 12.233C11.7499 12.257 12.1396 12.1349 12.45 11.89C12.45 11.89 13.28 11.39 13.45 8.43997C13.4495 8.18887 13.3953 7.94079 13.291 7.71238C13.1867 7.48397 13.0347 7.28053 12.8453 7.11571C12.6558 6.9509 12.4333 6.82853 12.1927 6.75682C11.952 6.68512 11.6988 6.66573 11.45 6.69997C11.2117 6.68925 10.9736 6.72631 10.7497 6.80895C10.5258 6.89159 10.3208 7.01816 10.1465 7.18121C9.97232 7.34425 9.83245 7.54049 9.73516 7.75838C9.63788 7.97627 9.58514 8.21141 9.58005 8.44997Z" fill="white"/>
<path d="M11.59 6H11.5C9.66 6.11 9.06 7.19 9 7.93C9 8 9 8.06 9 8.12C9 10.45 9.41 13 11.5 13C13.59 13 14 10.6 14 7.94C14 7.13 13.34 6 11.59 6ZM11.59 12C11.25 12 9.94 12.12 10.01 8.6C10.111 8.42462 10.2548 8.27763 10.4279 8.17273C10.601 8.06782 10.7978 8.0084 11 8C11.6635 8.09125 12.3365 8.09125 13 8C13.08 9.34 13.12 12.14 11.57 12H11.59Z" fill="#8D9599"/>
<path d="M16 16H7V14.5C7.00797 14.3505 7.05574 14.2058 7.13837 14.081C7.22101 13.9562 7.3355 13.8557 7.47 13.79L9.8 13C9.8 13 10.31 15 11.5 15C12.69 15 13.12 12.91 13.12 12.91L15.53 13.79C15.6558 13.8664 15.7631 13.9697 15.8443 14.0925C15.9256 14.2152 15.9787 14.3543 16 14.5V16Z" fill="#6FA6D4"/>
</g>
<defs>
<clipPath id="clip0_22719_16288">
<rect width="16" height="16" fill="white"/>
</clipPath>
</defs>
</svg>
