<svg width="16" height="16" viewBox="0 0 16 16" fill="none" xmlns="http://www.w3.org/2000/svg">
<g clip-path="url(#clip0_24433_2346)">
<path d="M11 15H1V1H9.5L11 2.5V15Z" fill="white"/>
<path d="M8 8H2V9H8V8Z" fill="#ADB1B2"/>
<path d="M9 6H4V7H9V6Z" fill="#ADB1B2"/>
<path d="M7 10H2V11H7V10Z" fill="#ADB1B2"/>
<path fill-rule="evenodd" clip-rule="evenodd" d="M1 0H9.4L12 2.6V7.02242C11.8353 7.00758 11.6685 7 11.5 7C11.3315 7 11.1647 7.00758 11 7.02242V4H9C8.73478 4 8.48043 3.89464 8.29289 3.70711C8.10536 3.51957 8 3.26522 8 3V1H1V15H6.59971C6.78261 15.3578 7.00353 15.6929 7.25716 16H1C0.734784 16 0.48043 15.8946 0.292893 15.7071C0.105357 15.5196 0 15.2652 0 15V1C0 0.734784 0.105357 0.48043 0.292893 0.292893C0.48043 0.105357 0.734784 0 1 0ZM9 1V3H11L9 1Z" fill="#798288"/>
<path d="M7 12H6V13H7V12Z" fill="#6FA6D4"/>
<path d="M15.5 11H13.5C13.3674 11 13.2402 10.9473 13.1464 10.8536C13.0527 10.7598 13 10.6326 13 10.5C13 10.3674 13.0527 10.2402 13.1464 10.1464C13.2402 10.0527 13.3674 10 13.5 10H15V8.5C15 8.36739 15.0527 8.24021 15.1464 8.14645C15.2402 8.05268 15.3674 8 15.5 8C15.6326 8 15.7598 8.05268 15.8536 8.14645C15.9473 8.24021 16 8.36739 16 8.5V10.5C16 10.6326 15.9473 10.7598 15.8536 10.8536C15.7598 10.9473 15.6326 11 15.5 11Z" fill="#407FB9"/>
<path d="M8.5 13H10.5C10.6326 13 10.7598 13.0527 10.8536 13.1464C10.9473 13.2402 11 13.3674 11 13.5C11 13.6326 10.9473 13.7598 10.8536 13.8536C10.7598 13.9473 10.6326 14 10.5 14H9V15.5C9 15.6326 8.94732 15.7598 8.85355 15.8536C8.75979 15.9473 8.63261 16 8.5 16C8.36739 16 8.24021 15.9473 8.14645 15.8536C8.05268 15.7598 8 15.6326 8 15.5V13.5C8 13.3674 8.05268 13.2402 8.14645 13.1464C8.24021 13.0527 8.36739 13 8.5 13V13Z" fill="#407FB9"/>
<path d="M12 15C11.5807 14.9977 11.1664 14.9076 10.784 14.7353C10.4017 14.5631 10.0596 14.3126 9.78005 14H8.55005C8.99337 14.7556 9.67252 15.3448 10.4832 15.6771C11.2938 16.0093 12.1911 16.0663 13.0372 15.8391C13.8834 15.612 14.6315 15.1133 15.1668 14.4197C15.702 13.7262 15.9948 12.8761 16 12H15C15 12.7956 14.684 13.5587 14.1214 14.1213C13.5588 14.6839 12.7957 15 12 15Z" fill="#407FB9"/>
<path d="M12 9.00001C12.4194 9.00226 12.8336 9.09241 13.216 9.26466C13.5984 9.4369 13.9404 9.68741 14.22 10H15.45C15.0067 9.24437 14.3275 8.65517 13.5169 8.32292C12.7063 7.99067 11.809 7.93375 10.9628 8.1609C10.1167 8.38805 9.36854 8.8867 8.83329 9.58026C8.29803 10.2738 8.00528 11.1239 8 12H9C9 11.2044 9.31607 10.4413 9.87868 9.87868C10.4413 9.31608 11.2044 9.00001 12 9.00001V9.00001Z" fill="#407FB9"/>
</g>
<defs>
<clipPath id="clip0_24433_2346">
<rect width="16" height="16" fill="white"/>
</clipPath>
</defs>
</svg>
