<svg width="16" height="16" viewBox="0 0 16 16" fill="none" xmlns="http://www.w3.org/2000/svg">
<g clip-path="url(#clip0_23898_16327)">
<path d="M11 15H1V1H9.5L11 2.5V15Z" fill="white"/>
<path d="M7 8H2V9H7V8Z" fill="#ADB1B2"/>
<path d="M9 6H4V7H9V6Z" fill="#ADB1B2"/>
<path d="M6 10H2V11H6V10Z" fill="#ADB1B2"/>
<path fill-rule="evenodd" clip-rule="evenodd" d="M1 0H9.4L12 2.6V6.02242C11.8353 6.00758 11.6685 6 11.5 6C11.3315 6 11.1647 6.00758 11 6.02242V4H9C8.73478 4 8.48043 3.89464 8.29289 3.70711C8.10536 3.51957 8 3.26522 8 3V1H1V15H7.25716C7.57052 15.3794 7.93379 15.7161 8.33692 16H1C0.734784 16 0.48043 15.8946 0.292893 15.7071C0.105357 15.5196 0 15.2652 0 15V1C0 0.734784 0.105357 0.48043 0.292893 0.292893C0.48043 0.105357 0.734784 0 1 0ZM9 1V3H11L9 1Z" fill="#798288"/>
<path d="M11.5 16C13.9853 16 16 13.9853 16 11.5C16 9.01472 13.9853 7 11.5 7C9.01472 7 7 9.01472 7 11.5C7 13.9853 9.01472 16 11.5 16Z" fill="#D65633"/>
<path d="M14 11H9V12H14V11Z" fill="white"/>
</g>
<defs>
<clipPath id="clip0_23898_16327">
<rect width="16" height="16" fill="white"/>
</clipPath>
</defs>
</svg>
